<svg xmlns="http://www.w3.org/2000/svg" xmlns:xlink="http://www.w3.org/1999/xlink" width="38" height="38" viewBox="0 0 38 38">
  <!-- width="38" height="38" -->
  <symbol id="arrow">
    <path d="M26.403,3.341 L10.638,19.042 L26.249,34.613 C27.026,35.387 27.026,36.642 26.249,37.417 C25.473,38.191 24.214,38.191 23.437,37.417 L6.567,20.590 C5.930,19.954 5.825,18.997 6.234,18.245 C6.317,17.907 6.485,17.586 6.750,17.322 L23.595,0.544 C24.370,-0.228 25.627,-0.228 26.403,0.544 C27.178,1.316 27.178,2.569 26.403,3.341 Z" />
  </symbol>
  <!-- width="55" height="55" -->
  <symbol id="search">
    <path d="M34.012,31.875 L31.887,33.985 L24.094,26.249 C21.537,28.476 18.195,29.836 14.527,29.836 C6.504,29.836 -0.000,23.381 -0.000,15.419 C-0.000,7.455 6.504,1.001 14.527,1.001 C22.550,1.001 29.053,7.455 29.053,15.419 C29.053,18.664 27.960,21.648 26.137,24.058 L34.012,31.875 ZM14.503,3.935 C8.127,3.935 2.958,9.065 2.958,15.394 C2.958,21.723 8.127,26.852 14.503,26.852 C20.879,26.852 26.048,21.723 26.048,15.394 C26.048,9.065 20.879,3.935 14.503,3.935 Z" />
  </symbol>
  <!-- width="55" height="55" -->
  <path id="favorite" d="M52.950,24.497 C53.165,27.666 52.064,30.975 49.772,33.262 L27.575,55.002 L27.437,54.865 L27.310,54.990 L5.496,33.579 C3.077,31.185 1.812,27.547 2.032,24.146 C2.023,23.933 2.000,23.723 2.000,23.508 C2.000,15.495 8.490,9.000 16.497,9.000 C20.905,9.000 24.841,10.976 27.495,14.083 C30.154,10.976 34.095,9.000 38.503,9.000 C46.509,9.000 53.000,15.495 53.000,23.508 C53.000,23.842 52.972,24.169 52.950,24.497 ZM38.503,12.987 C34.302,12.987 30.687,15.461 29.008,19.026 C28.529,19.430 27.998,19.736 27.438,19.736 C26.954,19.736 26.494,19.506 26.068,19.185 C24.423,15.534 20.761,12.987 16.497,12.987 C10.697,12.987 5.995,17.690 5.995,23.491 C5.995,25.666 6.656,27.686 7.788,29.362 C8.156,30.280 8.711,31.141 9.454,31.885 L27.570,50.010 L38.257,39.318 L38.156,39.217 L45.768,31.885 C46.697,30.955 47.298,29.835 47.642,28.655 C48.506,27.129 49.005,25.370 49.005,23.491 C49.005,17.690 44.303,12.987 38.503,12.987 Z" />
  <!-- width="55" height="55" -->
  <path id="share" d="M53.000,49.001 C53.000,50.105 52.105,51.000 51.001,51.000 L2.999,51.000 C1.895,51.000 1.000,50.105 1.000,49.001 C1.000,49.001 1.000,49.001 1.000,49.001 C1.000,49.000 1.000,49.000 1.000,49.000 L1.000,25.017 C1.000,23.913 1.895,23.017 3.000,23.017 C4.105,23.017 5.000,23.913 5.000,25.017 L5.000,47.002 L49.000,47.002 L49.000,25.017 C49.000,23.913 49.895,23.017 51.000,23.017 C52.105,23.017 53.000,23.913 53.000,25.017 L53.000,49.000 C53.000,49.000 53.000,49.000 53.000,49.001 C53.000,49.001 53.000,49.001 53.000,49.001 ZM40.912,18.223 L29.007,6.932 L29.007,31.074 C29.007,32.140 28.109,33.004 27.000,33.004 C25.891,33.004 24.993,32.140 24.993,31.074 L24.993,7.093 L13.258,18.223 C12.417,19.066 11.055,19.066 10.214,18.223 C9.374,17.380 9.374,16.014 10.214,15.170 L25.563,0.612 C26.082,0.091 26.794,-0.068 27.466,0.054 C27.561,0.068 27.655,0.082 27.747,0.109 C27.839,0.139 27.924,0.173 28.011,0.215 C28.224,0.313 28.429,0.434 28.607,0.612 L43.956,15.170 C44.796,16.014 44.796,17.380 43.956,18.223 C43.115,19.066 41.752,19.066 40.912,18.223 Z"/>
</svg>
